# xmcd
#
# Track frame offsets:
#	150
#	19343
#	39137
#	56547
#	72887
#	90673
#	103232
#	121202
#	151374
#	170052
#	183306
#	202994
#	217922
#	237136
#	252800
#	271760
#	289779
#	299623
#
# Disc length: 4214 seconds
#
# Revision: 1
# Processed by: cddbd v1.5.2PL0 Copyright (c) Steve Scherf et al.
# Submitted via: audiograbber 1.82.01
#
DISCID=fe107412
DTITLE=Zé Henrique and Gabrile - Desconhecido
DYEAR=2006
DGENRE=Sertanejo
TTITLE0=Um louco
TTITLE1=O Brasil tá cheio
TTITLE2=Quando digo Eu te amo
TTITLE3=Tremele
TTITLE4=Instinto Animal
TTITLE5=Pinga na cabeça
TTITLE6=Calma, respira
TTITLE7=Hoje eu sei
TTITLE8=Dona do meu destino
TTITLE9=Mala amarela
TTITLE10=Arrasou
TTITLE11=Proposta
TTITLE12=Inevitavel
TTITLE13=To mal
TTITLE14=Comitiva Esperança
TTITLE15=Caminhoneiro
TTITLE16=Instrumental
TTITLE17=Pagode na praça/pagode em Brasilia
EXTD=
EXTT0=
EXTT1=
EXTT2=
EXTT3=
EXTT4=
EXTT5=
EXTT6=
EXTT7=
EXTT8=
EXTT9=
EXTT10=
EXTT11=
EXTT12=
EXTT13=
EXTT14=
EXTT15=
EXTT16=
EXTT17=
PLAYORDER=
